<?xml version="1.0" encoding="UTF-8" standalone="no"?>
<!DOCTYPE svg PUBLIC "-//W3C//DTD SVG 1.1//EN" "http://www.w3.org/Graphics/SVG/1.1/DTD/svg11.dtd">
<!-- Created with Vectornator (http://vectornator.io/) -->
<svg height="100%" stroke-miterlimit="10" style="fill-rule:nonzero;clip-rule:evenodd;stroke-linecap:round;stroke-linejoin:round;" version="1.1" viewBox="0 0 330 193" width="100%" xml:space="preserve" xmlns="http://www.w3.org/2000/svg" xmlns:vectornator="http://vectornator.io" xmlns:xlink="http://www.w3.org/1999/xlink">
<defs>
<radialGradient cx="194.078" cy="105.857" gradientTransform="matrix(0.874474 0 0 0.874474 24.9808 14.1733)" gradientUnits="userSpaceOnUse" id="RadialGradient" r="64.7094">
<stop offset="0.256959" stop-color="#ffffff"/>
<stop offset="0.998111" stop-color="#6da2db"/>
</radialGradient>
</defs>
<g id="bg" vectornator:layerName="bg">
<path d="M123.742 35.1588L263.742 35.1588L263.742 175.159L123.742 175.159L123.742 35.1588Z" fill="#ffffff" fill-rule="nonzero" opacity="1" stroke="none"/>
</g>
<g id="globe" vectornator:layerName="globe">
<g opacity="1">
<path d="M138.11 106.743C138.11 74.5649 163.445 48.4795 194.697 48.4795C225.949 48.4795 251.284 74.5649 251.284 106.743C251.284 138.921 225.949 165.006 194.697 165.006C163.445 165.006 138.11 138.921 138.11 106.743Z" fill="url(#RadialGradient)" fill-rule="nonzero" opacity="1" stroke="#ffffff" stroke-linecap="round" stroke-linejoin="round" stroke-width="0.688"/>
<path d="M196.62 143.391L196.412 144.015L196.333 146.765L195.795 148.034L193.828 148.775L192.979 150.526L193.015 153.083L194.555 154.313L196.876 155.788L199.418 158.421L201.079 160.469L202.399 160.547L202.521 162.054L201.88 163.573L202.124 164.617L202.265 164.733L207.964 163.541L213.462 161.802L218.759 159.465L225.003 155.833L230.537 151.563L230.635 149.837L231.576 147.261L233.305 144.692L234.276 143.172L232.841 142.032L232.071 141.922L230.226 142.773L226.615 143.635L223.659 144.048L221.227 141.079L217.385 141.156L214.544 140.635L211.239 139.179L208.618 139.81L205.014 139.875L203.596 140.589L200.957 139.617L199.21 140.454L197.707 141.749L196.858 142.67L195.508 142.367L193.425 142.174L191.329 139.887L191.946 136.886L186.79 135.463L187.2 133.126L187.511 130.923L186.283 130.144L184.652 130.743L182.813 132.282L181.268 131.728L179.16 129.931L179.221 125.527L180.956 123.054L185.66 123.324L187.743 122.583L192.594 125.501L193.59 126.988L194.683 126.628L194.335 124.78L193.026 121.117L198.281 117.058L199.032 110.701L201.495 109.35L202.558 107.591L204.531 107.662L205.289 106.735L206.92 105.769L208.111 105.054L207.659 103.901L204.755 104.564L205.136 102.684L204.036 102.356L201.743 104.098L201.635 103.328L202.82 102.021L204.775 100.945L207.628 100.076L208.154 98.7946L207.586 97.1717L202.937 92.7411L200.563 93.1951L199.192 90.9701L196.235 89.637L195.135 89.9977L195.288 94.5185L196.07 95.4265L195.428 96.4762L194.824 100.669L192.722 98.0346L192.588 96.3023L188.953 95.0916L188.36 91.1697L193.565 85.5026L194.408 84.337L193.419 83.1971L192.111 83.6866L190.688 83.2422L190.315 80.3443L189.332 80.3636L189.032 82.3535L187.401 82.6047L187.364 80.1704L186.802 78.5797L184.591 76.2871L182.948 76.4417L181.97 77.3884L184.86 81.0333L184.658 82.5467L176.692 74.9283L176.68 73.299L176.209 71.1224L173.356 70.6973L170.509 71.0837L169.66 73.0801L167.565 72.6615L165.584 76.0627L162.671 75.4113L163.13 76.9183L168.854 79.5973L168.946 87.0031L167.993 90.3776L168.176 96.1671L164.015 106.104L163.631 110.863L166.71 121.353L168.029 122.835L169.141 123.273L166.765 116.478L167.626 116.24L170.571 124.528L170.601 127.768L173.601 130.376L176.588 133.222L184.603 136.429L189.051 141.903L193.015 143.455L194.763 143.204L196.62 143.391" fill="#006cb2" fill-rule="evenodd" opacity="1" stroke="none"/>
<path d="M190.45 130.298L191.757 129.687L193.846 130.228L196.259 131L198.116 131.194L199.772 131.986L199.344 132.907L197.377 133.184L195.734 131.934L193.742 130.917L190.45 130.298" fill="#006cb2" fill-rule="evenodd" opacity="1" stroke="none"/>
<path d="M200.322 132.546L200.242 133.473L201.666 134.04L202.979 134.24L205.27 133.853L203.725 132.939L203.828 132.366L202.943 132.031L200.322 132.546" fill="#006cb2" fill-rule="evenodd" opacity="1" stroke="none"/>
<path d="M208.484 98.6722L209.259 99.4772L210.701 100.714L212.235 102.072L212.687 103.103L210.274 103.161L208.734 101.338L208.172 100.063L208.484 98.6722" fill="#006cb2" fill-rule="evenodd" opacity="1" stroke="#e5e5e5" stroke-linecap="round" stroke-linejoin="round" stroke-width="0.648655"/>
<path d="M198.196 89.2571L196.766 88.8127L195.013 88.4907L196.748 87.0804L196.834 85.0969L196.045 83.8411L193.962 83.1843L192.527 82.5145L191.091 80.5632L192.276 79.3783L193.932 79.8291L196.021 80.9561L198.006 82.0637L198.788 83.9055L199.454 84.4658L201.098 85.245L202.112 87.0933L201.238 88.1365L200.939 89.6628L199.638 89.9075L198.196 89.2571" fill="#006cb2" fill-rule="evenodd" opacity="1" stroke="none"/>
<path d="M206.168 87.4732L209.033 89.2828L211.001 88.6646L213.383 87.8017L210.304 85.6507L210.671 79.6294L211.972 78.3286L211.954 76.2485L207.641 72.3846L204.989 71.5023L202.802 70.0405L200.273 69.9696L197.334 71.9982L196.137 71.2061L194.598 71.2254L192.753 72.0755L193.083 73.3506L192.24 75.5723L193.138 76.944L194.879 78.071L195.63 75.2696L196.485 74.2135L197.072 76.1648L204.134 82.0637L204.604 85.5413L205.93 86.3141L206.168 87.4732" fill="#006cb2" fill-rule="evenodd" opacity="1" stroke="none"/>
<path d="M213.609 77.9486L213.86 79.9128L214.513 80.9561L215.723 81.5035L217.244 79.6294L217.867 77.2853L216.548 76.2743L215.124 76.7637L214.483 77.691L213.609 77.9486" fill="#006cb2" fill-rule="evenodd" opacity="1" stroke="none"/>
<path d="M195.89 48.3081L191.251 48.4309L186.042 49.0586L181.881 49.9047L177.6 51.1602L172.497 53.0844L173.491 53.4255L174.485 54.3535L174.392 56.5506L172.55 57.5059L171.238 58.12L171.49 60.0714L170.615 61.8182L169.634 61.9683L168.454 63.0328L167.368 64.3155L168.044 65.4619L168.826 66.6082L170.23 66.5809L170.469 67.3997L169.621 68.8053L169.183 69.5012L170.933 69.1328L172.325 67.9319L173.411 66.7583L174.936 65.107L175.81 64.5202L175.903 63.2375L176.102 62.1867L178.832 61.7909L179.813 61.1905L179.482 60.0442L180.343 59.3209L182.636 59.0479L183.723 58.3383L183.71 57.0692L185.791 56.5779L188.083 56.4142L188.945 55.5817L191.145 55.6499L191.37 56.8099L192.802 57.3558L194.883 57.6696L197.176 57.2875L198.262 56.5779L200.449 56.4005L202.093 56.728L202.981 57.1647L204.399 56.6734L205.022 55.8546L205.698 55.4862L208.998 57.8607L211.212 59.3345L211.993 60.4945L213.2 61.0267L212.882 62.3231L214.75 62.2822L215.082 61.5726L216.168 61.9001L216.5 63.1829L213.77 63.7014L212.259 64.6431L213.584 66.5945L217.984 68.9417L220.556 72.3807L222.424 73.3769L223.962 73.7044L224.492 72.5444L226.241 71.6984L224.479 70.6885L223.047 69.201L221.709 68.1775L220.502 67.85L221.801 66.7856L221.019 65.8849L221.563 65.2844L222.451 65.844L223.988 66.7446L225.42 67.2905L225.884 69.3648L227.66 72.135L228.017 74.687L228.468 76.461L226.52 77.2525L225.314 76.6794L224.094 75.4375L223.114 75.9288L223.551 76.9523L224.571 78.5489L224.903 79.7089L225.367 81.4284L226.917 82.793L228.004 82.8886L227.567 81.8651L226.215 80.6232L226.109 79.9L227.434 80.4868L228.879 81.2646L230.178 81.7013L229.846 77.4709L229.926 77.5255L231.371 80.3912L231.185 83.066L231.848 84.2259L232.829 84.1986L234.817 84.7445L234.936 86.464L233.862 87.6512L233.876 89.2888L235.108 90.4078L235.228 91.6906L237.322 93.0416L238.621 91.9772L239.031 90.2168L239.244 89.398L239.787 88.6065L238.568 87.4602L237.786 85.8362L236.792 84.1304L236.752 82.2608L236.195 80.6642L235.957 79.3814L238.143 79.3541L238.462 78.3033L236.049 77.1843L237.242 76.5838L238.117 76.6794L239.416 76.2017L239.522 74.919L237.971 73.9091L237.521 72.2852L237.6 70.3337L236.818 68.3686L236.739 67.8091L234.565 65.4073L231.344 62.214L227.673 59.2936L223.763 56.6052L219.124 54.026L214.631 51.9927L208.044 49.8911L201.311 48.6765L195.89 48.3081Z" fill="#006cb2" fill-rule="nonzero" opacity="1" stroke="none"/>
<path d="M240.599 72.9062L240.501 74.4389L240.96 76.1648L240.526 77.105L239.768 77.1243L240.434 78.2706L241.772 80.0802L241.9 82.5274L240.703 82.2054L239.927 82.3342L239.744 85.1098L239.884 87.5376L239.567 88.7032L239.689 90.7962L239.047 91.9683L238.644 93.4752L239.31 95.5553L240.434 98.3116L240.349 100.289L240.288 104.352L240.77 108.036L241.68 111.037L243.134 114.373L245.022 116.543L247.227 117.084L248.504 114.959L249.378 113.568L250.569 113.001L250.856 109.259L250.893 105.795L250.752 102.24L250.331 98.0604L249.433 93.1532L248.327 88.9608L247.075 85.2386L245.517 81.5356L243.916 78.2513L241.974 74.9605L240.599 72.9062" fill="#006cb2" fill-rule="evenodd" opacity="1" stroke="none"/>
</g>
</g>
<g id="letter-G" vectornator:layerName="letter G">
<path d="M194.805 40.497C159.394 40.497 130.68 69.6644 130.68 105.622C130.68 141.58 159.394 170.716 194.805 170.716C230.217 170.716 257.541 146.62 256.213 105.484C256.207 105.273 205.149 105.434 205.149 105.434L205.149 118.122L242.357 117.921C242.419 138.583 218.91 157.747 194.805 157.747C166.448 157.747 143.43 134.417 143.43 105.622C143.43 76.8265 166.448 53.4657 194.805 53.4657C212.395 53.4657 225.069 60.8657 237.256 76.9741L246.962 67.8095C235.329 51.2972 216.318 40.497 194.805 40.497Z" fill="#f0830d" fill-rule="nonzero" opacity="1" stroke="none"/>
</g>
</svg>
